<svg xmlns="http://www.w3.org/2000/svg" viewBox="0 0 660 380" role="img" aria-labelledby="title desc"><title id="title">Premium interoperability — illustrative preview</title><desc id="desc">Calendar connections with change reconciliation. Static illustration, not a live calendar or product screenshot.</desc><style>text{font-family:Arial,sans-serif;fill:#224335}.label{font-size:13px;font-weight:600}.sub{font-size:10px;fill:#5b6f62}.event{font-size:11px}</style><rect x="1" y="1" width="658" height="378" rx="10" fill="#fff" stroke="#dce5df"/><text x="28" y="34" font-size="18" font-weight="600">Premium interoperability</text><text x="28" y="55" class="sub">Calendar connections with change reconciliation</text><path d="M1 70 H659" stroke="#dce5df"/><rect x="28" y="102" width="180" height="66" rx="8" fill="#f3f6fb" stroke="#d4deea"/><text x="46" y="130" class="label">Google Calendar</text><text x="46" y="149" class="sub">Two-way synchronization</text><rect x="28" y="188" width="180" height="66" rx="8" fill="#f3f6fb" stroke="#d4deea"/><text x="46" y="216" class="label">Microsoft 365</text><text x="46" y="235" class="sub">Outlook adapter</text><rect x="28" y="274" width="180" height="66" rx="8" fill="#f8f5ee" stroke="#e3d7bb"/><text x="46" y="302" class="label">CalDAV / ICS</text><text x="46" y="321" class="sub">Feeds and reconciliation</text><path d="M208 136 H260 V220 H302 M208 220 H302 M208 307 H260 V220" fill="none" stroke="#9bb9aa" stroke-width="2"/><rect x="302" y="155" width="310" height="132" rx="10" fill="#edf6ef" stroke="#bcd5c3"/><text x="327" y="187" class="label">WTS Calendar</text><text x="327" y="214" class="sub">Changes · conflicts · reconciliation</text><rect x="326" y="234" width="127" height="29" rx="5" fill="#d5e9df"/><text x="340" y="253" class="event">Customer adapters</text></svg>
