<svg xmlns="http://www.w3.org/2000/svg" width="1120" height="640" viewBox="0 0 1120 640" role="img" aria-labelledby="title desc"><title id="title">Split days and repeating rotations</title><desc id="desc">Separate working segments remain part of one schedule. Morning, Break, Evening, Night rotation. Static illustration, not a live calendar or product screenshot.</desc><defs><marker id="arrow" viewBox="0 0 10 10" refX="9" refY="5" markerWidth="7" markerHeight="7" orient="auto-start-reverse"><path d="M0 0L10 5L0 10z" fill="#13685a"/></marker></defs><style>text{font-family:Arial,Helvetica,sans-serif}</style><rect x="1" y="1" width="1118" height="638" rx="18" fill="#f7faf7" stroke="#d6e3dc"/><rect x="24" y="24" width="1072" height="592" rx="14" fill="#fff" stroke="#d6e3dc"/><text x="64" y="86" font-size="27" fill="#183d33" font-weight="600">Split days and repeating rotations</text><text x="64" y="122" font-size="18" fill="#597168" font-weight="400">Separate working segments remain part of one schedule</text><rect x="62" y="170" width="996" height="330" rx="10" fill="#fff" stroke="#d6e3dc"/><text x="260" y="202" font-size="14" fill="#597168" font-weight="600">08:00</text><text x="416" y="202" font-size="14" fill="#597168" font-weight="600">12:00</text><path d="M396 170V500" fill="none" stroke="#d6e3dc" stroke-width="2"/><text x="572" y="202" font-size="14" fill="#597168" font-weight="600">16:00</text><path d="M552 170V500" fill="none" stroke="#d6e3dc" stroke-width="2"/><text x="728" y="202" font-size="14" fill="#597168" font-weight="600">20:00</text><path d="M708 170V500" fill="none" stroke="#d6e3dc" stroke-width="2"/><text x="884" y="202" font-size="14" fill="#597168" font-weight="600">24:00</text><path d="M864 170V500" fill="none" stroke="#d6e3dc" stroke-width="2"/><text x="80" y="273" font-size="16" fill="#183d33" font-weight="600">Split shift</text><path d="M62 228H1058" fill="none" stroke="#d6e3dc" stroke-width="2"/><text x="80" y="361" font-size="16" fill="#183d33" font-weight="600">Rotation day 1</text><path d="M62 316H1058" fill="none" stroke="#d6e3dc" stroke-width="2"/><text x="80" y="449" font-size="16" fill="#183d33" font-weight="600">Rotation day 2</text><path d="M62 404H1058" fill="none" stroke="#d6e3dc" stroke-width="2"/><path d="M240 170V500" fill="none" stroke="#d6e3dc" stroke-width="2"/><rect x="250" y="250" width="230" height="42" rx="6" fill="#d9ece2" stroke="#d6e3dc"/><text x="268" y="277" font-size="16" fill="#183d33" font-weight="400">Morning</text><rect x="480" y="250" width="110" height="42" rx="0" fill="#f7f7f3" stroke="#d6e3dc"/><text x="507" y="277" font-size="15" fill="#183d33" font-weight="400">Break</text><rect x="590" y="250" width="220" height="42" rx="6" fill="#e2eaf6" stroke="#d6e3dc"/><text x="608" y="277" font-size="16" fill="#183d33" font-weight="400">Evening</text><rect x="738" y="338" width="294" height="42" rx="6" fill="#ece4f3" stroke="#d6e3dc"/><text x="756" y="365" font-size="16" fill="#183d33" font-weight="400">Night rotation</text><rect x="738" y="426" width="294" height="42" rx="6" fill="#ece4f3" stroke="#d6e3dc"/><text x="756" y="453" font-size="16" fill="#183d33" font-weight="400">Repeats from anchor</text><text x="64" y="589" font-size="14" fill="#597168" font-weight="400">Sample data · feature concept, not a product screenshot</text><text x="64" y="612" font-size="11" fill="#597168" font-weight="600">WTS CALENDAR  /  PREMIUM  /  STATIC ILLUSTRATION</text></svg>
